# xmcd CD database file
#
# Track frame offsets:
#	150
#	11398
#	22806
#	32622
#	43013
#	54861
#	66751
#	77574
#	88847
#	100529
#	110721
#	122843
#
# Disc length: 1793 seconds
#
# Revision: 0
# Processed by: cddbd v1.5PL3 Copyright (c) Steve Scherf et al.
# Submitted via: CDex 1.51
#
DISCID=8706ff0c
DTITLE=Fausto Papeti - Temas para la intimidad-CD1
DYEAR=1998
DGENRE=Jazz
TTITLE0=Smoke gets in your eyes
TTITLE1=The shadow of your smile
TTITLE2=American in paris
TTITLE3=Harlem nocturn
TTITLE4=Georgia in my mind
TTITLE5=Le crisbi
TTITLE6=So in love
TTITLE7=My caffe town
TTITLE8=Sleepy lagoon
TTITLE9=She mandoah
TTITLE10=I nostri mariti
TTITLE11=The round of music
EXTD=YEAR: 1998
EXTT0=
EXTT1=
EXTT2=
EXTT3=
EXTT4=
EXTT5=
EXTT6=
EXTT7=
EXTT8=
EXTT9=
EXTT10=
EXTT11=
PLAYORDER=
